<?xml version="1.0" encoding="utf-8"?>
<!-- Generator: Adobe Illustrator 19.2.1, SVG Export Plug-In . SVG Version: 6.00 Build 0)  -->
<svg version="1.1" id="Layer_1" xmlns="http://www.w3.org/2000/svg" xmlns:xlink="http://www.w3.org/1999/xlink" x="0px" y="0px"
	 width="152px" height="41px" viewBox="0 0 152 41" enable-background="new 0 0 152 41" xml:space="preserve">
<g>
	<g>
		<path fill="#FFD72E" d="M1,11c0,0.1,0,15.7,0,15.7c0,0.9,0.3,1.8,0.9,2.6l7.9,10.1c0.5,0.7,1.6,0.7,2.1,0l7.9-10.1
			c0.6-0.7,0.9-1.6,0.9-2.6c0,0,0-15.6,0-15.7c0-5.4-4.4-9.8-9.8-9.8C5.4,1.2,1,5.6,1,11z"/>
	</g>
	<g>
		<g>
			<g>
				<g>
					<g>
						<g>
							<g>
								<g>
									<path d="M34.9,27.5l5.8-13c0.4-0.9,1.1-1.4,2.1-1.4H43c1,0,1.7,0.5,2.1,1.4l5.8,13c0.1,0.3,0.2,0.5,0.2,0.7
										c0,1-0.8,1.8-1.7,1.8c-0.9,0-1.4-0.5-1.8-1.3l-1.1-2.6h-7.3L38,28.8c-0.3,0.7-0.9,1.1-1.7,1.1c-0.9,0-1.7-0.8-1.7-1.7
										C34.7,28,34.8,27.7,34.9,27.5z M45.1,22.9l-2.3-5.5l-2.3,5.5H45.1z"/>
								</g>
							</g>
							<g>
								<g>
									<path d="M54.7,15c0-1,0.8-1.8,1.8-1.8h5.8c2.1,0,3.7,0.6,4.8,1.7c0.9,0.9,1.4,2.2,1.4,3.8v0c0,2.6-1.3,4.2-3.3,5l2.5,3.1
										c0.4,0.5,0.6,0.8,0.6,1.4c0,1-0.9,1.7-1.7,1.7c-0.8,0-1.4-0.4-1.8-0.9l-3.6-4.5h-2.9v3.6c0,1-0.8,1.8-1.8,1.8
										c-1,0-1.8-0.8-1.8-1.8V15z M62,21.3c1.8,0,2.8-0.9,2.8-2.3v0c0-1.6-1.1-2.4-2.9-2.4h-3.6v4.8H62z"/>
								</g>
							</g>
							<g>
								<g>
									<path d="M76.8,16.6h-3.5c-0.9,0-1.7-0.8-1.7-1.7s0.8-1.7,1.7-1.7H84c0.9,0,1.7,0.8,1.7,1.7s-0.8,1.7-1.7,1.7h-3.5v11.5
										c0,1-0.8,1.8-1.8,1.8s-1.8-0.8-1.8-1.8V16.6z"/>
								</g>
							</g>
							<g>
								<g>
									<path d="M88.6,15c0-1,0.8-1.8,1.8-1.8h5.9c1.9,0,3.4,0.5,4.3,1.5c0.8,0.8,1.1,1.7,1.1,2.8v0c0,1.9-1,2.9-2.2,3.6
										c1.9,0.7,3.1,1.8,3.1,4.1v0c0,3-2.5,4.5-6.2,4.5h-6.1c-1,0-1.8-0.8-1.8-1.8V15z M95.5,19.9c1.6,0,2.6-0.5,2.6-1.8v0
										c0-1.1-0.9-1.7-2.4-1.7h-3.6v3.5H95.5z M96.5,26.6c1.6,0,2.6-0.6,2.6-1.8v0c0-1.1-0.8-1.8-2.7-1.8h-4.2v3.6H96.5z"/>
								</g>
							</g>
							<g>
								<g>
									<path d="M106.4,28V15c0-1,0.8-1.8,1.8-1.8h9.2c0.9,0,1.6,0.7,1.6,1.6c0,0.9-0.7,1.6-1.6,1.6H110v3.4h4.7
										c0.9,0,1.6,0.7,1.6,1.6c0,0.9-0.7,1.6-1.6,1.6H110v3.5h7.5c0.9,0,1.6,0.7,1.6,1.6c0,0.9-0.7,1.6-1.6,1.6h-9.3
										C107.2,29.8,106.4,29,106.4,28z"/>
								</g>
							</g>
							<g>
								<g>
									<path d="M123,28V15c0-1,0.8-1.8,1.8-1.8h9.2c0.9,0,1.6,0.7,1.6,1.6c0,0.9-0.7,1.6-1.6,1.6h-7.4v3.4h4.7
										c0.9,0,1.6,0.7,1.6,1.6c0,0.9-0.7,1.6-1.6,1.6h-4.7v3.5h7.5c0.9,0,1.6,0.7,1.6,1.6c0,0.9-0.7,1.6-1.6,1.6h-9.3
										C123.8,29.8,123,29,123,28z"/>
								</g>
							</g>
							<g>
								<g>
									<path d="M139.7,28c-0.4-0.3-0.7-0.8-0.7-1.4c0-0.9,0.8-1.7,1.7-1.7c0.5,0,0.8,0.2,1,0.3c1.3,0.9,2.6,1.5,4.2,1.5
										c1.5,0,2.4-0.6,2.4-1.6v0c0-0.9-0.6-1.4-3.3-2.1c-3.3-0.9-5.5-1.8-5.5-5.1v0c0-3,2.4-5,5.8-5c2,0,3.8,0.5,5.3,1.5
										c0.4,0.2,0.8,0.7,0.8,1.4c0,0.9-0.8,1.7-1.7,1.7c-0.4,0-0.6-0.1-0.9-0.3c-1.2-0.7-2.3-1.1-3.5-1.1c-1.4,0-2.1,0.6-2.1,1.4
										v0c0,1.1,0.7,1.4,3.6,2.2c3.4,0.9,5.3,2.1,5.3,5v0c0,3.3-2.5,5.1-6.1,5.1C143.7,30,141.5,29.4,139.7,28z"/>
								</g>
							</g>
						</g>
					</g>
				</g>
			</g>
		</g>
	</g>
	<g>
		<path fill="#FFFFFF" d="M5.2,33.5l4.6,5.8c0.5,0.7,1.6,0.7,2.1,0l4.6-5.8H5.2z"/>
	</g>
	<g>
		<g>
			<circle cx="13.6" cy="8.5" r="1.6"/>
		</g>
	</g>
	<g>
		<g>
			<circle cx="8.4" cy="8.5" r="1.6"/>
		</g>
	</g>
	<path d="M21.6,11c0-6-4.9-10.8-10.8-10.8C4.9,0.2,0,5,0,11l0,15.7c0,1.1,0.4,2.3,1.1,3.2L9,39.9c0.4,0.6,1.1,0.9,1.8,0.9
		c0,0,0,0,0,0c0.7,0,1.4-0.3,1.8-0.9l7.9-10.1c0.7-0.9,1.1-2,1.1-3.2L21.6,11z M11.1,38.7c-0.2,0.2-0.3,0.2-0.5,0l-3.3-4.2h7.1
		L11.1,38.7z M15.9,32.5H5.7l-3-3.9c-0.4-0.6-0.7-1.2-0.7-2L2,11c0-4.9,4-8.8,8.8-8.8s8.8,4,8.8,8.8l0,2.5h-14v2h14l0,3.9h-14v2h14
		l0,3.9h-14v2h14c-0.1,0.5-0.3,1-0.6,1.4L15.9,32.5z"/>
</g>
</svg>
